<svg xmlns="http://www.w3.org/2000/svg" width="32" height="32" viewBox="0 0 32 32"><path fill="#444" d="M29.3 3h-4.3v-2c0-.6-.4-1-1-1s-1 .4-1 1v2h-6v-2c0-.6-.4-1-1-1s-1 .4-1 1v2h-6v-2c0-.6-.4-1-1-1s-1 .4-1 1v2h-4.3c-1.5 0-2.7 1.2-2.7 2.7v23.7c0 1.4 1.2 2.6 2.7 2.6h26.7c1.5 0 2.7-1.2 2.7-2.7v-23.6c-.1-1.5-1.3-2.7-2.8-2.7zm.7 26.3c0 .4-.3.7-.7.7h-26.6c-.4 0-.7-.3-.7-.7v-23.6c0-.4.3-.7.7-.7h4.3v2c0 .6.4 1 1 1s1-.4 1-1v-2h6v2c0 .6.4 1 1 1s1-.4 1-1v-2h6v2c0 .6.4 1 1 1s1-.4 1-1v-2h4.3c.4 0 .7.3.7.7v23.6zm-23-17.3h4v3h-4v-3zm0 5h4v3h-4v-3zm0 5h4v3h-4v-3zm7 0h4v3h-4v-3zm0-5h4v3h-4v-3zm0-5h4v3h-4v-3zm7 10h4v3h-4v-3zm0-5h4v3h-4v-3zm0-5h4v3h-4v-3z"/><path fill="#EC135A" d="M21 17h4v3h-4z"/></svg>