<svg xmlns="http://www.w3.org/2000/svg" viewBox="0 41.1 240.9 78.3" enable-background="new 0 41.1 240.9 78.3"><linearGradient id="a" gradientUnits="userSpaceOnUse" x1="297.139" y1="130.728" x2="321.737" y2="130.728" gradientTransform="matrix(.663 0 0 -.663 0 140.402)"><stop offset="0" stop-color="#9DB928"/><stop offset="1" stop-color="#B0CC3E"/></linearGradient><path fill="url(#a)" d="M205.9 42.5c-3.4-.7-5.8-.1-7.2 1.9-1.3 1.7-1.8 4-1.6 7.3.1 2.7.7 5.6 1.9 8.4 1 2.7 2.1 4.4 3.1 5.1 1.1-.3 2.7-1.5 4.8-3.6 2.2-2.3 3.9-4.5 5-6.9 1.5-2.9 1.9-5.2 1.1-7.3-.8-2.4-3.2-4-7.1-4.9z"/><path fill="#293534" d="M202.5 60.8s-1.8-2.8-2-5.1c-.3-2.8 2.5-3.6 3.8-3.5 1.7.1 4.3 2.2 2.2 5.4-1.2 1.9-4 3.2-4 3.2z"/><linearGradient id="b" gradientUnits="userSpaceOnUse" x1="322.696" y1="121.147" x2="351.523" y2="121.147" gradientTransform="matrix(.663 0 0 -.663 0 140.402)"><stop offset="0" stop-color="#9DB928"/><stop offset="1" stop-color="#B0CC3E"/></linearGradient><path fill="url(#b)" d="M230.1 53.6c-2.2-2.5-4.4-3.4-6.8-2.8-1.8.5-3.7 2.1-5.4 4.8-1.4 2.3-2.5 4.8-3.2 7.7-.7 2.7-.9 4.6-.5 5.8 1.1.4 3 .4 5.8-.1 3-.5 5.6-1.3 7.9-2.5 2.8-1.4 4.4-3.1 5-5 .7-2.3-.2-4.9-2.8-7.9z"/><path fill="#343434" d="M217.3 66.4s.1-3.3 1.3-5.3c1.3-2.2 4-1.4 4.9-.7 1.2.9 2.2 3.7-1 5.2-1.9 1-5.2.8-5.2.8z"/><linearGradient id="c" gradientUnits="userSpaceOnUse" x1="327.563" y1="93.667" x2="360.113" y2="93.667" gradientTransform="matrix(.663 0 0 -.663 0 140.402)"><stop offset="0" stop-color="#9DB928"/><stop offset="1" stop-color="#B0CC3E"/></linearGradient><path fill="url(#c)" d="M238.8 76.8c-.4-3.3-1.7-5.4-3.8-6.1-1.8-.6-4.2-.4-7 .7-2.4 1-4.8 2.5-7 4.4-2.1 1.7-3.3 3.2-3.6 4.4.7.9 2.2 2 4.6 3.2 2.7 1.4 5.2 2.3 7.7 2.6 3 .5 5.3.1 6.9-1.2 1.8-1.6 2.5-4.3 2.2-8z"/><path fill="#343434" d="M220.2 80.2s1.8-2.9 3.7-4c2.2-1.3 3.9.6 4.2 1.7.5 1.3-.1 4.2-3.4 4.1-2-.2-4.5-1.8-4.5-1.8z"/><g fill="#A5BB27"><path d="M53 70.8c.8 0 1.5-.1 2-.3.6-.3 1.1-.5 1.4-.9.4-.4.6-.9.8-1.3.2-.5.3-1 .3-1.5s-.1-1.1-.3-1.5c-.2-.4-.5-.7-.8-1-.3-.2-.7-.4-1.2-.5-.5-.1-1-.2-1.5-.2-.9 0-1.5.1-2.1.4-.5.3-1 .6-1.3 1-.3.4-.6.8-.7 1.3-.1.5-.2.9-.2 1.2 0 1.1.3 1.9.9 2.5.4.5 1.4.8 2.7.8zM56.5 76.1c0 .5 0 .9-.1 1.3v.5c0 .2 0 .2.1.1v-1.9zM94.5 70.8c.8 0 1.5-.1 2-.3.6-.3 1.1-.5 1.4-.9.4-.4.6-.9.8-1.3.2-.5.3-1 .3-1.5s-.1-1.1-.3-1.5c-.2-.4-.5-.7-.8-1-.3-.2-.7-.4-1.2-.5-.5-.1-1-.2-1.5-.2-.9 0-1.5.1-2.1.4-.5.3-1 .6-1.3 1-.3.4-.6.8-.7 1.3-.1.5-.2.9-.2 1.2 0 1.1.3 1.9.9 2.5.4.5 1.4.8 2.7.8zM132.6 71.2c.6-1.5.9-2.9.9-4.4 0-1.6-.3-3.1-1-4.6-.6-1.5-1.6-2.8-2.9-3.9-1.3-1.1-2.9-2.1-4.8-2.7-1.9-.7-4.1-1-6.7-1-1.9 0-3.8.3-5.6.9-1.7.6-3.3 1.5-4.8 2.7-1.5 1.1-2.7 2.5-3.9 4.1-1.2 1.6-2.2 3.4-3 5.3-.8 1.9-1.4 4-1.9 6.2s-.7 4.5-.7 6.9c0 1.4.1 2.9.2 4.4l.3 2.7-1.8 1.5c-.7.5-1.3 1-2 1.4-.7.4-1.3.6-1.8.6s-.8-.2-.9-.6c-.1-.4-.2-.9-.2-1.6 0-.7.1-1.5.3-2.3.2-.9.4-1.7.5-2.6.1-.9.4-1.9.8-3.1.4-1.2.7-2.2.9-3 .2-.7.4-1.5.5-2.1.2-.6.3-1.1.3-1.4 0-.4-.1-.7-.3-.9-.2-.2-.7-.3-1.3-.3-.3 0-.7.1-1.1.1-.4.1-.8.2-1.2.4-.4.1-.7.4-1.1.7-.3.3-.5.7-.6 1.1-.1.5-.5 1.7-1.1 3.5-.7 2.3-1.1 3.6-1.3 4.3-.1.2-.3 1-.5 2.4-.3.2-.6.3-.8.5-.6.3-1.2.6-1.9.9-.7.3-1.2.4-1.7.4-.6 0-1.1-.2-1.5-.5-.4-.3-.8-.7-1.1-1.1-.3-.5-.6-1-.8-1.6.2-.4.4-.8.7-1.3l.9-1.8c.4-.8.7-1.5 1.1-2.1 0 0 .1-.2.3-.5.1-.3.3-.7.5-1.1.1-.4.3-.9.5-1.3s.2-.9.2-1.3c0-.6-.3-1.1-.8-1.4-.5-.3-1.2-.5-2.1-.5-.8 0-1.5.1-2.1.5s-1 .7-1.2 1.1l-5.6 13h-.3l2.1-13.1c0-.5-.2-.8-.5-1.1-.3-.3-.9-.4-1.5-.4-.8 0-1.5.1-2.1.4-.5.3-1.1.6-1.5 1.1-.5.5-.9 1.1-1.3 1.9-.4.7-.8 1.7-1.2 2.7-.4 1.1-.9 2.3-1.5 3.9s-1.2 3.2-1.9 4.7h-.3l1.9-13.2c0-.5-.2-.8-.6-1.1-.4-.3-.9-.4-1.7-.4l-.6-.1c-.6 0-1.1.1-1.5.4s-.8.6-1.1 1c-.3.5-.6.9-.8 1.4l-.5 1.5c-.1.2-.1.3-.1.4v7.7c0 1.1 0 2.1.1 3l-1.1.9c-.7.5-1.3 1-2 1.4-.7.4-1.3.6-1.8.6s-.8-.2-.9-.6c-.1-.4-.2-.9-.2-1.6 0-.7.1-1.5.3-2.3.2-.9.4-1.7.5-2.6.1-.9.4-1.9.8-3.1.4-1.2.7-2.2.9-3 .2-.7.4-1.5.5-2.1.2-.6.3-1.1.3-1.4 0-.4-.1-.7-.3-.9-.2-.2-.7-.3-1.3-.3-.3 0-.7.1-1.1.1-.4.1-.8.2-1.2.4-.4.1-.7.4-1.1.7-.3.3-.5.7-.6 1.1-.1.5-.5 1.7-1.1 3.5-.7 2.3-1.1 3.6-1.3 4.3-.1.3-.4 1.8-.9 4.4-.2 1.3-.3 2.4-.3 3.3 0 .6.1 1.1.2 1.7-.4.2-.8.4-1.2.5-.7.3-1.5.5-2.1.7-.7.2-1.3.3-1.9.3-.9 0-1.8-.3-2.5-.9-1-.9-1.7-1.8-2.2-2.8-1.1-2.6-2.2-4.6-3.1-6.4 0-.1-.9-2.3-2.7-6.5 2.2 0 4.1-.1 5.8-.4 1.7-.3 3.1-.7 4.4-1.3 1.3-.6 2.3-1.3 3.1-2.1.8-.9 1.5-1.9 2-3 .5-1.2.9-2.5 1.1-3.8.2-1.5.3-3 .3-4.7-.1-.5-.1-1-.1-1.6s-.1-1.1-.1-1.4c0-.2-.1-.3-.1-.6-.1-.2-.2-.5-.4-.7-.2-.3-.5-.5-.9-.6-.4-.2-.9-.3-1.5-.3-.8.1-1.4.1-1.8.3-.4.1-.7.3-.9.5-.2.3-.3.6-.3 1.1v1.8c0 1.9-.1 3.4-.4 4.8-.3 1.3-.7 2.5-1.3 3.4-.6.9-1.3 1.7-2.1 2.2-.8.5-1.7 1-2.8 1.3-1.1.3-2.2.5-3.5.6-1.3.1-2.7.1-4.2.1.1-1.2.1-2.5.3-3.7.1-1.1.1-2.3.3-3.7.1-1.4.2-2.7.3-4 .1-.4.1-.9.1-1.5.1-.5 0-1.1-.1-1.7l-.1-.7c-.1-.3-.2-.5-.4-.7-.2-.2-.5-.4-.9-.5-.4-.1-.9-.2-1.5-.2-1 0-2.2.1-3.5.2-1.3.1-2.7.3-4.2.7-1.4.3-2.9.9-4.3 1.5s-2.8 1.5-4 2.5-2.3 2.3-3.1 3.7c-.8 1.5-1.3 3.2-1.6 5.2v.30000000000000004l.1.6c.1.3.2.5.5.7.3.2.7.4 1.1.5s1.1.2 2 .2c.7 0 1.1-.1 1.5-.2.4-.2.7-.3.9-.5.1-.1.3-.3.3-.5.1-.2.1-.3.1-.4 0-.7.1-1.5.3-2.3.2-.8.5-1.6.9-2.4.4-.8.9-1.5 1.5-2.3.6-.7 1.3-1.4 2.2-1.9.8-.5 1.8-.9 2.9-1.3 1.1-.3 2.3-.5 3.6-.5l-.3 1.9c-.3 2.3-.7 4.7-1 7.1-.3 2.5-.7 4.7-1.3 7-.5 2.2-1.1 4.3-1.7 6.2s-1.5 3.6-2.3 5c-.9 1.4-1.9 2.5-3 3.4-1.1.9-2.4 1.3-3.7 1.3-.5 0-1-.1-1.5-.2s-1.1-.3-1.6-.6h-.2c-.3 0-.5.1-.7.2s0 .1-.2.2-.3.3-.5.5l-.3.4c-.1.4-.3.7-.5 1s-.3.7-.3 1.1c0 .4.3.8.8 1.1.5.3 1.1.5 1.9.7.7.2 1.5.3 2.3.4.8.1 1.5.1 2.1.1 1.7 0 3.3-.3 4.8-1 1.6-.7 3-1.7 4.3-3.1s2.5-3.2 3.6-5.4 2-4.8 2.8-7.9c.7.7 1.2 1.5 1.7 2.4.5.9 1 1.8 1.4 2.7.4.9.9 1.9 1.3 3 .5 1.1.9 2 1.4 2.9.4.9 1.1 2.1 1.9 3.4.8 1.4 1.5 2.4 2.2 3s1.4 1.1 2.3 1.4 1.9.5 2.9.5 2-.1 3.1-.2c.9-.2 1.8-.4 2.7-.7.9-.3 1.6-.7 2.3-1 .7-.3 1.3-.7 1.9-.9.5-.3.9-.5 1.2-.7.5-.1 1.1-.2 1.6-.4.9-.3 1.9-.7 2.9-1.2.9-.5 1.7-1 2.4-1.5l.1.5c.5 1.7 1.4 2.6 2.5 2.6.7 0 1.4-.3 2.1-.8.7-.5 1.5-1.3 2.1-2.3.7-1 1.3-2.1 1.9-3.5.6-1.3 1.1-2.9 1.5-4.5l.6.1v2.5c0 .9 0 1.7.1 2.5 0 .8.1 1.6.1 2.3.1.7.1 1.4.3 1.9.1.6.3 1 .4 1.3s.3.5.5.5c.6 0 1.2-.2 1.8-.6.6-.5 1.2-1 1.8-1.7.6-.7 1.2-1.6 1.7-2.6s1.1-2.1 1.6-3.3c0 .9.1 1.7.5 2.4.3.7.7 1.2 1.3 1.6.5.5 1.1.7 1.8.9.7.2 1.4.3 2.2.3 1 0 2-.2 3.1-.6l1.2-.5c0 .5.1 1 .2 1.5.1.6.4 1.1.7 1.5.3.4.8.7 1.3.9.5.2 1.2.3 2 .3.9 0 1.8-.1 2.8-.5.9-.3 1.9-.7 2.9-1.2.9-.5 1.8-1 2.6-1.6.3-.2.7-.4.9-.6.2.8.4 1.5.7 2.2.5 1.5 1.1 2.7 1.9 3.8.7 1.1 1.6 1.9 2.6 2.6 1 .7 2.1 1 3.3 1 1.2 0 2.3-.3 3.2-.7 1-.4 1.9-1 2.7-1.7.8-.7 1.5-1.5 2.1-2.5.6-1 1.1-2.1 1.5-3.1.4-1.1.7-2.2.9-3.3.3-1.1.4-2.3.4-3.3v-1.4c.1-.3.1-.7.1-1.1.1-.4.1-.8.1-1.2.1-.9.1-1.9.1-3.1 2.4-.3 4.4-1 6.2-1.9 1.7-.9 3.2-2 4.4-3.2 1-1.1 1.9-2.4 2.5-3.9zm-5.1-1.2c-.4.8-.9 1.6-1.6 2.3-.7.7-1.6 1.3-2.7 1.8s-2.4.9-3.8 1.1l.2-1.8 1.4-5.9v-.30000000000000004c0-.4-.1-.7-.3-.9-.2-.3-.3-.5-.6-.6s-.5-.2-.8-.3c-.3-.1-.6-.1-.9-.1-.9 0-1.7.2-2.3.7s-1.1 1.1-1.5 1.7-.7 1.5-.9 2.3c-.2.9-.3 1.7-.4 2.4-.1.7-.1 1.4-.1 2v1.2c-.3-.1-.6-.1-.9-.3-.3-.1-.7-.3-1.1-.5-.4-.1-.9-.4-1.3-.7l-.5-.3c-.1-.1-.3-.1-.4-.1-.2 0-.4.1-.5.2-.1.1-.2.3-.3.5-.1.2-.1.5-.1.7v.8c0 .5.1.9.1 1.3.1.3.3.7.7 1.1s.9.7 1.6 1.1c.7.3 1.7.8 2.9 1.3v1.1c0 .7-.1 1.5-.1 2.5s-.1 2.1-.2 3.1c-.1 1.1-.3 2.2-.5 3.2-.2 1.1-.5 2.1-.9 2.9-.3.8-.8 1.5-1.3 2.1-.5.5-1.2.8-2 .8-.7 0-1.4-.3-1.9-.9-.5-.7-.9-1.5-1.2-2.5s-.6-2.1-.7-3.3c-.1-1.3-.3-2.5-.3-3.6-.1-1.2-.1-2.3-.1-3.4v-2.5c0-1.5.1-3.1.5-4.6.2-1.6.5-3.1 1-4.6.5-1.5 1.1-2.9 1.8-4.2.7-1.3 1.5-2.5 2.5-3.5s2.1-1.8 3.3-2.4c1.3-.6 2.7-.9 4.2-.9 2 0 3.7.3 5 .7 1.3.5 2.4 1.1 3.2 1.8.8.7 1.3 1.6 1.7 2.5.3.9.5 1.7.5 2.6.2.8 0 1.6-.4 2.4zM212.2 85.7c-1 1.5-1.9 2.7-2.7 3.6-.8.9-1.5 1.7-2.2 2.4-.7.7-1.3 1.1-1.8 1.5-.5.3-1 .7-1.5.9.4-2.6.8-5 1.2-7.2.2-1 .3-2.2.7-3.8s.5-2.8.7-3.6c.1-.9.3-1.7.4-2.3.1-.7.2-1.2.3-1.6.1-.2.1-.3.1-.5 0-.5-.1-.8-.5-1-.3-.2-.7-.3-1.2-.3-.4 0-.8.1-1.3.2-.4.1-.9.3-1.3.6s-.7.6-1.1 1c-.3.4-.5.8-.7 1.3l-1.8 8.5c-.1.5-.2 1.1-.4 1.9-.2.7-.5 1.5-.8 2.1s-.7 1.3-1.2 1.7-1 .7-1.5.7c-.3 0-.7-.1-.9-.3-.2-.1-.4-.4-.5-.7l-.3-1c-.1-.4-.1-.7-.1-1.1 0-.7.1-1.6.3-2.5.2-.9.4-2.2.7-3.8s.5-2.9.7-3.8c.2-.9.4-1.8.7-2.5.1-.3.1-.5.2-.7.1-.2.1-.3.1-.5 0-.6-.2-1-.6-1.3-.3-.3-.8-.4-1.3-.4-.7 0-1.3.2-1.9.5-.7.3-1.2.9-1.5 1.5-.5 1-.9 1.9-1.3 2.9s-.7 2.2-.9 3.8-.5 2.9-.7 4c-.1.6-.2 1.3-.2 2-.6.5-1.3.9-1.9 1.2-.6.3-1.2.7-1.8.9-.6.3-1.1.5-1.6.6s-.9.2-1.2.2c-.5 0-1-.1-1.4-.3-.4-.2-.8-.5-1.1-.8-.3-.4-.5-.9-.7-1.4s-.2-1.3-.2-2.1v-1.1c.1-.4.1-.8.1-1.2.1-.5.1-.9.1-1.3.1-.4.1-.8.1-1.2l.1-2.8c.4-.5.8-1 1.3-1.6.5-.6.9-1.2 1.3-1.8h8.7c.3 0 .7-.2 1-.5.3-.4.5-.8.5-1.4 0-.5-.1-.9-.2-1.2-.1-.3-.3-.5-.7-.5-.3-.1-.6-.1-1-.1-.4-.1-.8-.1-1.3-.1-.5-.1-.9-.1-1.4-.1-.5-.1-.9-.1-1.3-.1-.5 0-.8-.1-1.1-.1-.3-.1-.5-.1-.7 0 .5-.8 1.1-1.7 1.5-2.5s.9-1.7 1.3-2.5c.3-.8.7-1.7.9-2.5.2-.9.3-1.6.3-2.3 0-.9-.1-1.7-.3-2.5-.2-.8-.5-1.5-.9-2.1-.4-.6-.9-1.1-1.4-1.5-.5-.3-1.1-.5-1.8-.5-1.1 0-2 .4-2.9 1.3s-1.7 2.1-2.5 3.6-1.5 3.2-2.1 5.1c-.6 1.9-1.1 3.8-1.5 5.9-.2.1-.5.1-.9.1-.4-.1-.9-.1-1.4-.1h-1.6c-.5.1-1.1.1-1.5.1-.5.1-.9.1-1.1.3-.3.1-.5.3-.5.5v.5l.1.6c.1.2.3.4.5.5s.5.2.9.3c.8.1 1.4.2 1.9.3.4.1.8.1 1.1.2l.8.2c.3.1.6.1 1.1.2-.1 1-.3 2.1-.3 3.1-.1 1.1-.1 2-.1 2.9 0 .7 0 1.4.1 2.1-.5.3-1.1.5-1.7.8-.7.3-1.5.5-2.1.5l-.7-.1c-.2-.1-.4-.3-.6-.5-.1-.2-.3-.5-.4-.9-.1-.3-.1-.8-.1-1.3 0-.3.1-.7.1-1.2.1-.5.1-1.1.3-1.8.1-.7.3-1.3.3-1.8.1-.5.1-.8.1-1.1 0-.3-.1-.6-.2-.9-.1-.3-.3-.5-.5-.7l-.7-.4c-.3-.1-.6-.1-.9-.1-.8 0-1.5.2-2.2.7s-1.2 1-1.7 1.7-1 1.5-1.5 2.5-.8 1.8-1.1 2.4h-.3c0-.8 0-1.7.1-2.7.1-1.1.1-1.9.1-2.4s-.1-.9-.1-1.1c0-.3-.1-.5-.2-.6-.1-.1-.3-.2-.5-.3-.2-.1-.5-.1-.9-.1-.3 0-.6 0-.9.1-.3 0-.5.1-.6.2-.1.1-.3.3-.4.5-.1.2-.2.5-.3.8-.2.5-.4 1.1-.6 1.9-.2.8-.5 1.8-.7 2.9-.3 1.1-.5 2.3-.7 3.2-.2.8-.3 1.6-.4 2.4-.8 1-1.5 1.9-2.2 2.7l-1 1s-.7.6-1.1.9-.7.5-1.1.6c-.3.2-.7.3-1 .3-.4 0-.7-.2-.8-.6-.1-.3-.2-.9-.2-1.6 0-.8.1-1.8.4-3 .3-1.2.5-2.3.7-3.2.2-.9.4-1.9.5-2.7s.2-1.7.2-2.4c0-.5-.1-.9-.1-1.1-.1-.3-.2-.5-.3-.7s-.3-.2-.5-.3c-.2-.1-.5-.1-.7-.1h-1s-.4-.1-.6-.1c-.1 0-.3-.1-.5-.1-.2-.1-.3-.2-.5-.4s-.3-.3-.4-.5c-.1-.2-.3-.3-.5-.5-.2-.1-.5-.2-.8-.2-1.1 0-2.1.2-3.1.7s-1.9 1.1-2.9 1.8c-.9.8-1.7 1.7-2.5 2.7-.7 1-1.5 2.2-2.1 3.6s-1.1 2.7-1.5 3.8c-.3 1.2-.5 2.3-.5 3.4 0 1 .1 1.9.5 2.7s.7 1.5 1.3 2.1c.5.5 1.2 1 1.9 1.3.7.3 1.4.5 2.1.5.7 0 1.4-.1 2.1-.3.7-.2 1.3-.5 2-.9.6-.4 1.2-.7 1.7-1.2.5-.4.9-.9 1.3-1.3.5 1.2 1.1 2.2 1.7 2.8s1.5.9 2.5.9c.9 0 1.7-.2 2.5-.6.8-.4 1.6-.9 2.3-1.5.6-.5 1.1-1 1.6-1.5v.3c.1.6.2 1.1.4 1.5s.5.8.9 1.1c.4.3.9.4 1.5.4.3 0 .5-.1.7-.1.3-.1.5-.3.7-.5.2-.2.4-.5.6-.9.2-.4.4-.9.6-1.5l4-11.3h.5c.1 1 .3 1.9.5 2.9s.5 1.8.9 2.5 1 1.3 1.7 1.8 1.6.7 2.7.7c.6 0 1.3-.1 1.9-.3.7-.2 1.2-.5 1.8-.7l1.3-.7c.3 1.7.7 3.1 1.2 4.4.6 1.3 1.3 2.3 2.2 3 .9.7 1.9 1.1 3.1 1.1.5 0 1.2-.1 1.9-.3.7-.2 1.5-.5 2.4-.9.9-.4 1.9-.9 3.1-1.6.4-.2.8-.4 1.2-.7.3.7.7 1.4 1.2 1.9s1.2 1 1.9 1.3c.7.3 1.4.5 2.1.5.9 0 1.7-.2 2.6-.7.9-.4 1.7-1 2.5-1.7l-.5 2.7c-.9.8-1.8 1.6-2.5 2.7-.7.7-1.5 1.7-2.6 2.9-.5.6-1.1 1.2-1.5 1.9-.5.7-.9 1.3-1.1 1.7-.3.4-.7 1.1-1.2 2.1-1 1.7-1.5 3.4-1.3 5 .1.8.3 1.6.6 2.2.3.6.8 1.1 1.3 1.5.5.3 1.1.6 1.8.8.7.2 1.3.3 2.1.3 1 0 1.9-.1 2.7-.5s1.5-.7 2.1-1.2c.5-.5 1.1-1.1 1.5-1.8.5-.7.9-1.4 1.1-2.1.3-.7.5-1.5.7-2.3.3-.9.4-1.6.5-2.3.1-.7.2-1.3.3-2.1 0-.3.1-.7.1-1.3.2-1.9.4-3.2.5-4 .2-.7.5-1.2.9-1.5 1.7-1.1 2.7-1.8 3-2.1 1-.8 1.5-1.3 1.7-1.3.3-.3.9-.7 1.7-1.4.5-.5 1-.9 1.5-1.5.5-.5.8-.9 1.1-1.4l-1.2-4.8zm-32.7-18.1c.3-1.3.7-2.5 1.1-3.5.3-1.1.7-2 1.1-2.7.4-.7.8-1.1 1.2-1.1.3 0 .5.1.7.2.1.1.3.3.3.5.1.2.1.4.1.6.1.2.1.4.1.5 0 .5-.1 1.1-.4 1.9-.3.7-.6 1.5-1 2.4-.4.8-.9 1.7-1.3 2.6-.5.9-.9 1.7-1.4 2.5-.3 0-.5-.1-.7-.1l-.7-.1c.3-1.1.6-2.4.9-3.7zm-38.5 17.7c-.1.5-.2 1.1-.4 1.9-.2.7-.5 1.5-.8 2.1s-.7 1.3-1.2 1.7c-.5.5-1 .7-1.5.7-.3 0-.7-.1-.9-.3-.2-.2-.4-.5-.5-.7-.1-.3-.2-.6-.3-1-.1-.3-.1-.7-.1-1.1 0-.7.1-1.4.2-2.1.2-.7.5-1.6.9-2.6s.8-1.9 1.3-2.5.9-1.3 1.5-1.8 1.1-.9 1.7-1.3c.6-.3 1.2-.5 1.8-.5l-1.7 7.5zm57.4 18c-.1.7-.2 1.4-.3 1.9l-.3 1.5c-.3.9-.5 1.5-.6 2-.1.5-.3 1-.5 1.5s-.4.9-.6 1.2c-.2.3-.4.5-.7.8-.3.2-.5.4-.8.5-.3.1-.7.1-1 .1-1 0-1.3-.7-.7-2.2.6-1.7 1.4-3.4 2.5-5.1 1-1.7 2.1-2.9 3.1-3.6 0 .1-.1.6-.1 1.4z"/></g></svg>