<?xml version="1.0" encoding="utf-8"?>
<!-- Generator: Adobe Illustrator 18.1.1, SVG Export Plug-In . SVG Version: 6.00 Build 0)  -->
<!DOCTYPE svg PUBLIC "-//W3C//DTD SVG 1.1//EN" "http://www.w3.org/Graphics/SVG/1.1/DTD/svg11.dtd">
<svg version="1.1" id="Calque_1" xmlns="http://www.w3.org/2000/svg" xmlns:xlink="http://www.w3.org/1999/xlink" x="0px" y="0px"
	 viewBox="0 41.1 240.9 78.3" enable-background="new 0 41.1 240.9 78.3" xml:space="preserve">
<g>
	
		<linearGradient id="SVGID_1_" gradientUnits="userSpaceOnUse" x1="297.1386" y1="130.7279" x2="321.7373" y2="130.7279" gradientTransform="matrix(0.6632 0 0 -0.6632 0 140.4018)">
		<stop  offset="0" style="stop-color:#9DB928"/>
		<stop  offset="1" style="stop-color:#B0CC3E"/>
	</linearGradient>
	<path fill="url(#SVGID_1_)" d="M205.9,42.5c-3.4-0.7-5.8-0.1-7.2,1.9c-1.3,1.7-1.8,4-1.6,7.3c0.1,2.7,0.7,5.6,1.9,8.4
		c1,2.7,2.1,4.4,3.1,5.1c1.1-0.3,2.7-1.5,4.8-3.6c2.2-2.3,3.9-4.5,5-6.9c1.5-2.9,1.9-5.2,1.1-7.3C212.2,45,209.8,43.4,205.9,42.5z"
		/>
	<path fill="#293534" d="M202.5,60.8c0,0-1.8-2.8-2-5.1c-0.3-2.8,2.5-3.6,3.8-3.5c1.7,0.1,4.3,2.2,2.2,5.4
		C205.3,59.5,202.5,60.8,202.5,60.8z"/>
	
		<linearGradient id="SVGID_2_" gradientUnits="userSpaceOnUse" x1="322.6962" y1="121.1471" x2="351.5231" y2="121.1471" gradientTransform="matrix(0.6632 0 0 -0.6632 0 140.4018)">
		<stop  offset="0" style="stop-color:#9DB928"/>
		<stop  offset="1" style="stop-color:#B0CC3E"/>
	</linearGradient>
	<path fill="url(#SVGID_2_)" d="M230.1,53.6c-2.2-2.5-4.4-3.4-6.8-2.8c-1.8,0.5-3.7,2.1-5.4,4.8c-1.4,2.3-2.5,4.8-3.2,7.7
		c-0.7,2.7-0.9,4.6-0.5,5.8c1.1,0.4,3,0.4,5.8-0.1c3-0.5,5.6-1.3,7.9-2.5c2.8-1.4,4.4-3.1,5-5C233.6,59.2,232.7,56.6,230.1,53.6z"/>
	<path fill="#343434" d="M217.3,66.4c0,0,0.1-3.3,1.3-5.3c1.3-2.2,4-1.4,4.9-0.7c1.2,0.9,2.2,3.7-1,5.2
		C220.6,66.6,217.3,66.4,217.3,66.4z"/>
	
		<linearGradient id="SVGID_3_" gradientUnits="userSpaceOnUse" x1="327.563" y1="93.6667" x2="360.1135" y2="93.6667" gradientTransform="matrix(0.6632 0 0 -0.6632 0 140.4018)">
		<stop  offset="0" style="stop-color:#9DB928"/>
		<stop  offset="1" style="stop-color:#B0CC3E"/>
	</linearGradient>
	<path fill="url(#SVGID_3_)" d="M238.8,76.8c-0.4-3.3-1.7-5.4-3.8-6.1c-1.8-0.6-4.2-0.4-7,0.7c-2.4,1-4.8,2.5-7,4.4
		c-2.1,1.7-3.3,3.2-3.6,4.4c0.7,0.9,2.2,2,4.6,3.2c2.7,1.4,5.2,2.3,7.7,2.6c3,0.5,5.3,0.1,6.9-1.2C238.4,83.2,239.1,80.5,238.8,76.8
		z"/>
	<path fill="#343434" d="M220.2,80.2c0,0,1.8-2.9,3.7-4c2.2-1.3,3.9,0.6,4.2,1.7c0.5,1.3-0.1,4.2-3.4,4.1
		C222.7,81.8,220.2,80.2,220.2,80.2z"/>
</g>
<g>
	<path fill="#A5BB27" d="M53,70.8c0.8,0,1.5-0.1,2-0.3c0.6-0.3,1.1-0.5,1.4-0.9c0.4-0.4,0.6-0.9,0.8-1.3c0.2-0.5,0.3-1,0.3-1.5
		s-0.1-1.1-0.3-1.5c-0.2-0.4-0.5-0.7-0.8-1c-0.3-0.2-0.7-0.4-1.2-0.5c-0.5-0.1-1-0.2-1.5-0.2c-0.9,0-1.5,0.1-2.1,0.4
		c-0.5,0.3-1,0.6-1.3,1c-0.3,0.4-0.6,0.8-0.7,1.3c-0.1,0.5-0.2,0.9-0.2,1.2c0,1.1,0.3,1.9,0.9,2.5C50.7,70.5,51.7,70.8,53,70.8z"/>
	<path fill="#A5BB27" d="M56.5,76.1c0,0.5,0,0.9-0.1,1.3c0,0.1,0,0.3,0,0.5c0,0.2,0,0.2,0.1,0.1c0-0.2,0-0.4,0-0.5
		C56.5,76.7,56.5,76.3,56.5,76.1z"/>
	<path fill="#A5BB27" d="M94.5,70.8c0.8,0,1.5-0.1,2-0.3c0.6-0.3,1.1-0.5,1.4-0.9c0.4-0.4,0.6-0.9,0.8-1.3c0.2-0.5,0.3-1,0.3-1.5
		s-0.1-1.1-0.3-1.5c-0.2-0.4-0.5-0.7-0.8-1c-0.3-0.2-0.7-0.4-1.2-0.5c-0.5-0.1-1-0.2-1.5-0.2c-0.9,0-1.5,0.1-2.1,0.4
		c-0.5,0.3-1,0.6-1.3,1c-0.3,0.4-0.6,0.8-0.7,1.3c-0.1,0.5-0.2,0.9-0.2,1.2c0,1.1,0.3,1.9,0.9,2.5C92.2,70.5,93.2,70.8,94.5,70.8z"
		/>
	<path fill="#A5BB27" d="M132.6,71.2c0.6-1.5,0.9-2.9,0.9-4.4c0-1.6-0.3-3.1-1-4.6c-0.6-1.5-1.6-2.8-2.9-3.9
		c-1.3-1.1-2.9-2.1-4.8-2.7c-1.9-0.7-4.1-1-6.7-1c-1.9,0-3.8,0.3-5.6,0.9c-1.7,0.6-3.3,1.5-4.8,2.7c-1.5,1.1-2.7,2.5-3.9,4.1
		c-1.2,1.6-2.2,3.4-3,5.3c-0.8,1.9-1.4,4-1.9,6.2c-0.5,2.2-0.7,4.5-0.7,6.9c0,1.4,0.1,2.9,0.2,4.4c0.1,0.9,0.2,1.8,0.3,2.7
		c-0.6,0.5-1.2,1-1.8,1.5c-0.7,0.5-1.3,1-2,1.4c-0.7,0.4-1.3,0.6-1.8,0.6c-0.5,0-0.8-0.2-0.9-0.6c-0.1-0.4-0.2-0.9-0.2-1.6
		c0-0.7,0.1-1.5,0.3-2.3c0.2-0.9,0.4-1.7,0.5-2.6c0.1-0.9,0.4-1.9,0.8-3.1c0.4-1.2,0.7-2.2,0.9-3c0.2-0.7,0.4-1.5,0.5-2.1
		c0.2-0.6,0.3-1.1,0.3-1.4c0-0.4-0.1-0.7-0.3-0.9c-0.2-0.2-0.7-0.3-1.3-0.3c-0.3,0-0.7,0.1-1.1,0.1c-0.4,0.1-0.8,0.2-1.2,0.4
		c-0.4,0.1-0.7,0.4-1.1,0.7c-0.3,0.3-0.5,0.7-0.6,1.1c-0.1,0.5-0.5,1.7-1.1,3.5c-0.7,2.3-1.1,3.6-1.3,4.3c-0.1,0.2-0.3,1-0.5,2.4
		c-0.3,0.2-0.6,0.3-0.8,0.5c-0.6,0.3-1.2,0.6-1.9,0.9c-0.7,0.3-1.2,0.4-1.7,0.4c-0.6,0-1.1-0.2-1.5-0.5c-0.4-0.3-0.8-0.7-1.1-1.1
		c-0.3-0.5-0.6-1-0.8-1.6c0.2-0.4,0.4-0.8,0.7-1.3c0.2-0.4,0.5-1,0.9-1.8c0.4-0.8,0.7-1.5,1.1-2.1c0,0,0.1-0.2,0.3-0.5
		c0.1-0.3,0.3-0.7,0.5-1.1c0.1-0.4,0.3-0.9,0.5-1.3s0.2-0.9,0.2-1.3c0-0.6-0.3-1.1-0.8-1.4c-0.5-0.3-1.2-0.5-2.1-0.5
		c-0.8,0-1.5,0.1-2.1,0.5s-1,0.7-1.2,1.1l-5.6,13h-0.3l2.1-13.1c0-0.5-0.2-0.8-0.5-1.1c-0.3-0.3-0.9-0.4-1.5-0.4
		c-0.8,0-1.5,0.1-2.1,0.4c-0.5,0.3-1.1,0.6-1.5,1.1c-0.5,0.5-0.9,1.1-1.3,1.9c-0.4,0.7-0.8,1.7-1.2,2.7c-0.4,1.1-0.9,2.3-1.5,3.9
		s-1.2,3.2-1.9,4.7h-0.3l1.9-13.2c0-0.5-0.2-0.8-0.6-1.1c-0.4-0.3-0.9-0.4-1.7-0.4l-0.6-0.1c-0.6,0-1.1,0.1-1.5,0.4s-0.8,0.6-1.1,1
		c-0.3,0.5-0.6,0.9-0.8,1.4c-0.2,0.5-0.3,1-0.5,1.5c-0.1,0.2-0.1,0.3-0.1,0.4c0,1.1,0,2.2,0,3.3c0,1.3,0,2.8,0,4.4
		c0,1.1,0,2.1,0.1,3c-0.4,0.3-0.7,0.6-1.1,0.9c-0.7,0.5-1.3,1-2,1.4c-0.7,0.4-1.3,0.6-1.8,0.6c-0.5,0-0.8-0.2-0.9-0.6
		c-0.1-0.4-0.2-0.9-0.2-1.6c0-0.7,0.1-1.5,0.3-2.3c0.2-0.9,0.4-1.7,0.5-2.6c0.1-0.9,0.4-1.9,0.8-3.1c0.4-1.2,0.7-2.2,0.9-3
		c0.2-0.7,0.4-1.5,0.5-2.1c0.2-0.6,0.3-1.1,0.3-1.4c0-0.4-0.1-0.7-0.3-0.9c-0.2-0.2-0.7-0.3-1.3-0.3c-0.3,0-0.7,0.1-1.1,0.1
		c-0.4,0.1-0.8,0.2-1.2,0.4c-0.4,0.1-0.7,0.4-1.1,0.7c-0.3,0.3-0.5,0.7-0.6,1.1c-0.1,0.5-0.5,1.7-1.1,3.5c-0.7,2.3-1.1,3.6-1.3,4.3
		c-0.1,0.3-0.4,1.8-0.9,4.4c-0.2,1.3-0.3,2.4-0.3,3.3c0,0.6,0.1,1.1,0.2,1.7c-0.4,0.2-0.8,0.4-1.2,0.5c-0.7,0.3-1.5,0.5-2.1,0.7
		c-0.7,0.2-1.3,0.3-1.9,0.3c-0.9,0-1.8-0.3-2.5-0.9c-1-0.9-1.7-1.8-2.2-2.8c-1.1-2.6-2.2-4.6-3.1-6.4c0-0.1-0.9-2.3-2.7-6.5
		c2.2,0,4.1-0.1,5.8-0.4c1.7-0.3,3.1-0.7,4.4-1.3c1.3-0.6,2.3-1.3,3.1-2.1c0.8-0.9,1.5-1.9,2-3c0.5-1.2,0.9-2.5,1.1-3.8
		c0.2-1.5,0.3-3,0.3-4.7c-0.1-0.5-0.1-1-0.1-1.6s-0.1-1.1-0.1-1.4c0-0.2-0.1-0.3-0.1-0.6c-0.1-0.2-0.2-0.5-0.4-0.7
		c-0.2-0.3-0.5-0.5-0.9-0.6c-0.4-0.2-0.9-0.3-1.5-0.3c-0.8,0.1-1.4,0.1-1.8,0.3c-0.4,0.1-0.7,0.3-0.9,0.5c-0.2,0.3-0.3,0.6-0.3,1.1
		s0,1.1,0,1.8c0,1.9-0.1,3.4-0.4,4.8c-0.3,1.3-0.7,2.5-1.3,3.4c-0.6,0.9-1.3,1.7-2.1,2.2c-0.8,0.5-1.7,1-2.8,1.3
		c-1.1,0.3-2.2,0.5-3.5,0.6c-1.3,0.1-2.7,0.1-4.2,0.1c0.1-1.2,0.1-2.5,0.3-3.7c0.1-1.1,0.1-2.3,0.3-3.7c0.1-1.4,0.2-2.7,0.3-4
		c0.1-0.4,0.1-0.9,0.1-1.5c0.1-0.5,0-1.1-0.1-1.7c0-0.2-0.1-0.5-0.1-0.7c-0.1-0.3-0.2-0.5-0.4-0.7c-0.2-0.2-0.5-0.4-0.9-0.5
		c-0.4-0.1-0.9-0.2-1.5-0.2c-1,0-2.2,0.1-3.5,0.2c-1.3,0.1-2.7,0.3-4.2,0.7c-1.4,0.3-2.9,0.9-4.3,1.5s-2.8,1.5-4,2.5
		s-2.3,2.3-3.1,3.7c-0.8,1.5-1.3,3.2-1.6,5.2v0.1v0.2c0,0.2,0.1,0.4,0.1,0.6c0.1,0.3,0.2,0.5,0.5,0.7c0.3,0.2,0.7,0.4,1.1,0.5
		s1.1,0.2,2,0.2c0.7,0,1.1-0.1,1.5-0.2c0.4-0.2,0.7-0.3,0.9-0.5c0.1-0.1,0.3-0.3,0.3-0.5c0.1-0.2,0.1-0.3,0.1-0.4
		c0-0.7,0.1-1.5,0.3-2.3c0.2-0.8,0.5-1.6,0.9-2.4c0.4-0.8,0.9-1.5,1.5-2.3c0.6-0.7,1.3-1.4,2.2-1.9c0.8-0.5,1.8-0.9,2.9-1.3
		c1.1-0.3,2.3-0.5,3.6-0.5l-0.3,1.9c-0.3,2.3-0.7,4.7-1,7.1c-0.3,2.5-0.7,4.7-1.3,7c-0.5,2.2-1.1,4.3-1.7,6.2s-1.5,3.6-2.3,5
		c-0.9,1.4-1.9,2.5-3,3.4c-1.1,0.9-2.4,1.3-3.7,1.3c-0.5,0-1-0.1-1.5-0.2c-0.5-0.1-1.1-0.3-1.6-0.6c-0.1,0-0.1,0-0.2,0
		c-0.3,0-0.5,0.1-0.7,0.2S3.3,92,3.1,92.1c-0.2,0.1-0.3,0.3-0.5,0.5c-0.1,0.1-0.2,0.3-0.3,0.4C2.2,93.4,2,93.7,1.8,94
		s-0.3,0.7-0.3,1.1c0,0.4,0.3,0.8,0.8,1.1c0.5,0.3,1.1,0.5,1.9,0.7c0.7,0.2,1.5,0.3,2.3,0.4c0.8,0.1,1.5,0.1,2.1,0.1
		c1.7,0,3.3-0.3,4.8-1c1.6-0.7,3-1.7,4.3-3.1s2.5-3.2,3.6-5.4c1.1-2.2,2-4.8,2.8-7.9c0.7,0.7,1.2,1.5,1.7,2.4c0.5,0.9,1,1.8,1.4,2.7
		c0.4,0.9,0.9,1.9,1.3,3c0.5,1.1,0.9,2,1.4,2.9c0.4,0.9,1.1,2.1,1.9,3.4c0.8,1.4,1.5,2.4,2.2,3s1.4,1.1,2.3,1.4s1.9,0.5,2.9,0.5
		c1,0,2-0.1,3.1-0.2c0.9-0.2,1.8-0.4,2.7-0.7c0.9-0.3,1.6-0.7,2.3-1c0.7-0.3,1.3-0.7,1.9-0.9c0.5-0.3,0.9-0.5,1.2-0.7c0,0,0,0,0,0
		c0.5-0.1,1.1-0.2,1.6-0.4c0.9-0.3,1.9-0.7,2.9-1.2c0.9-0.5,1.7-1,2.4-1.5c0,0.2,0.1,0.3,0.1,0.5c0.5,1.7,1.4,2.6,2.5,2.6
		c0.7,0,1.4-0.3,2.1-0.8c0.7-0.5,1.5-1.3,2.1-2.3c0.7-1,1.3-2.1,1.9-3.5c0.6-1.3,1.1-2.9,1.5-4.5l0.6,0.1c0,0.8,0,1.7,0,2.5
		c0,0.9,0,1.7,0.1,2.5c0,0.8,0.1,1.6,0.1,2.3c0.1,0.7,0.1,1.4,0.3,1.9c0.1,0.6,0.3,1,0.4,1.3s0.3,0.5,0.5,0.5c0.6,0,1.2-0.2,1.8-0.6
		c0.6-0.5,1.2-1,1.8-1.7c0.6-0.7,1.2-1.6,1.7-2.6c0.5-1,1.1-2.1,1.6-3.3c0,0.9,0.1,1.7,0.5,2.4c0.3,0.7,0.7,1.2,1.3,1.6
		c0.5,0.5,1.1,0.7,1.8,0.9c0.7,0.2,1.4,0.3,2.2,0.3c1,0,2-0.2,3.1-0.6c0.4-0.2,0.8-0.3,1.2-0.5c0,0.5,0.1,1,0.2,1.5
		c0.1,0.6,0.4,1.1,0.7,1.5c0.3,0.4,0.8,0.7,1.3,0.9c0.5,0.2,1.2,0.3,2,0.3c0.9,0,1.8-0.1,2.8-0.5c0.9-0.3,1.9-0.7,2.9-1.2
		c0.9-0.5,1.8-1,2.6-1.6c0.3-0.2,0.7-0.4,0.9-0.6c0.2,0.8,0.4,1.5,0.7,2.2c0.5,1.5,1.1,2.7,1.9,3.8c0.7,1.1,1.6,1.9,2.6,2.6
		c1,0.7,2.1,1,3.3,1c1.2,0,2.3-0.3,3.2-0.7c1-0.4,1.9-1,2.7-1.7c0.8-0.7,1.5-1.5,2.1-2.5c0.6-1,1.1-2.1,1.5-3.1
		c0.4-1.1,0.7-2.2,0.9-3.3c0.3-1.1,0.4-2.3,0.4-3.3c0-0.1,0-0.3,0-0.5c0-0.3,0-0.5,0-0.9c0.1-0.3,0.1-0.7,0.1-1.1
		c0.1-0.4,0.1-0.8,0.1-1.2c0.1-0.9,0.1-1.9,0.1-3.1c2.4-0.3,4.4-1,6.2-1.9c1.7-0.9,3.2-2,4.4-3.2C131.1,74,132,72.7,132.6,71.2z
		 M127.5,70c-0.4,0.8-0.9,1.6-1.6,2.3c-0.7,0.7-1.6,1.3-2.7,1.8c-1.1,0.5-2.4,0.9-3.8,1.1l0.2-1.8l1.4-5.9c0-0.1,0-0.1,0-0.1
		c0,0,0-0.1,0-0.2c0-0.4-0.1-0.7-0.3-0.9c-0.2-0.3-0.3-0.5-0.6-0.6s-0.5-0.2-0.8-0.3c-0.3-0.1-0.6-0.1-0.9-0.1
		c-0.9,0-1.7,0.2-2.3,0.7s-1.1,1.1-1.5,1.7s-0.7,1.5-0.9,2.3c-0.2,0.9-0.3,1.7-0.4,2.4c-0.1,0.7-0.1,1.4-0.1,2c0,0.6,0,1,0,1.2
		c-0.3-0.1-0.6-0.1-0.9-0.3c-0.3-0.1-0.7-0.3-1.1-0.5c-0.4-0.1-0.9-0.4-1.3-0.7c-0.2-0.1-0.3-0.2-0.5-0.3c-0.1-0.1-0.3-0.1-0.4-0.1
		c-0.2,0-0.4,0.1-0.5,0.2c-0.1,0.1-0.2,0.3-0.3,0.5c-0.1,0.2-0.1,0.5-0.1,0.7c0,0.3,0,0.5,0,0.8c0,0.5,0.1,0.9,0.1,1.3
		c0.1,0.3,0.3,0.7,0.7,1.1s0.9,0.7,1.6,1.1c0.7,0.3,1.7,0.8,2.9,1.3v1.1c0,0.7-0.1,1.5-0.1,2.5c0,1-0.1,2.1-0.2,3.1
		c-0.1,1.1-0.3,2.2-0.5,3.2c-0.2,1.1-0.5,2.1-0.9,2.9c-0.3,0.8-0.8,1.5-1.3,2.1c-0.5,0.5-1.2,0.8-2,0.8c-0.7,0-1.4-0.3-1.9-0.9
		c-0.5-0.7-0.9-1.5-1.2-2.5s-0.6-2.1-0.7-3.3c-0.1-1.3-0.3-2.5-0.3-3.6c-0.1-1.2-0.1-2.3-0.1-3.4c0-1.1,0-1.9,0-2.5
		c0-1.5,0.1-3.1,0.5-4.6c0.2-1.6,0.5-3.1,1-4.6c0.5-1.5,1.1-2.9,1.8-4.2c0.7-1.3,1.5-2.5,2.5-3.5s2.1-1.8,3.3-2.4
		c1.3-0.6,2.7-0.9,4.2-0.9c2,0,3.7,0.3,5,0.7c1.3,0.5,2.4,1.1,3.2,1.8c0.8,0.7,1.3,1.6,1.7,2.5c0.3,0.9,0.5,1.7,0.5,2.6
		C128.1,68.4,127.9,69.2,127.5,70z"/>
	<path fill="#A5BB27" d="M212.2,85.7c-1,1.5-1.9,2.7-2.7,3.6c-0.8,0.9-1.5,1.7-2.2,2.4c-0.7,0.7-1.3,1.1-1.8,1.5
		c-0.5,0.3-1,0.7-1.5,0.9c0.4-2.6,0.8-5,1.2-7.2c0.2-1,0.3-2.2,0.7-3.8s0.5-2.8,0.7-3.6c0.1-0.9,0.3-1.7,0.4-2.3
		c0.1-0.7,0.2-1.2,0.3-1.6c0.1-0.2,0.1-0.3,0.1-0.5c0-0.5-0.1-0.8-0.5-1c-0.3-0.2-0.7-0.3-1.2-0.3c-0.4,0-0.8,0.1-1.3,0.2
		c-0.4,0.1-0.9,0.3-1.3,0.6c-0.4,0.3-0.7,0.6-1.1,1c-0.3,0.4-0.5,0.8-0.7,1.3l-1.8,8.5c-0.1,0.5-0.2,1.1-0.4,1.9
		c-0.2,0.7-0.5,1.5-0.8,2.1s-0.7,1.3-1.2,1.7s-1,0.7-1.5,0.7c-0.3,0-0.7-0.1-0.9-0.3c-0.2-0.1-0.4-0.4-0.5-0.7
		c-0.1-0.3-0.2-0.7-0.3-1c-0.1-0.4-0.1-0.7-0.1-1.1c0-0.7,0.1-1.6,0.3-2.5c0.2-0.9,0.4-2.2,0.7-3.8s0.5-2.9,0.7-3.8
		c0.2-0.9,0.4-1.8,0.7-2.5c0.1-0.3,0.1-0.5,0.2-0.7c0.1-0.2,0.1-0.3,0.1-0.5c0-0.6-0.2-1-0.6-1.3c-0.3-0.3-0.8-0.4-1.3-0.4
		c-0.7,0-1.3,0.2-1.9,0.5c-0.7,0.3-1.2,0.9-1.5,1.5c-0.5,1-0.9,1.9-1.3,2.9s-0.7,2.2-0.9,3.8s-0.5,2.9-0.7,4c-0.1,0.6-0.2,1.3-0.2,2
		c0,0,0,0,0,0c-0.6,0.5-1.3,0.9-1.9,1.2c-0.6,0.3-1.2,0.7-1.8,0.9c-0.6,0.3-1.1,0.5-1.6,0.6s-0.9,0.2-1.2,0.2c-0.5,0-1-0.1-1.4-0.3
		c-0.4-0.2-0.8-0.5-1.1-0.8c-0.3-0.4-0.5-0.9-0.7-1.4s-0.2-1.3-0.2-2.1c0-0.3,0-0.7,0-1.1c0.1-0.4,0.1-0.8,0.1-1.2
		c0.1-0.5,0.1-0.9,0.1-1.3c0.1-0.4,0.1-0.8,0.1-1.2c0-0.9,0.1-1.9,0.1-2.8c0.4-0.5,0.8-1,1.3-1.6c0.5-0.6,0.9-1.2,1.3-1.8h8.7
		c0.3,0,0.7-0.2,1-0.5c0.3-0.4,0.5-0.8,0.5-1.4c0-0.5-0.1-0.9-0.2-1.2c-0.1-0.3-0.3-0.5-0.7-0.5c-0.3-0.1-0.6-0.1-1-0.1
		c-0.4-0.1-0.8-0.1-1.3-0.1c-0.5-0.1-0.9-0.1-1.4-0.1c-0.5-0.1-0.9-0.1-1.3-0.1c-0.5,0-0.8-0.1-1.1-0.1c-0.3-0.1-0.5-0.1-0.7,0
		c0.5-0.8,1.1-1.7,1.5-2.5s0.9-1.7,1.3-2.5c0.3-0.8,0.7-1.7,0.9-2.5c0.2-0.9,0.3-1.6,0.3-2.3c0-0.9-0.1-1.7-0.3-2.5
		c-0.2-0.8-0.5-1.5-0.9-2.1c-0.4-0.6-0.9-1.1-1.4-1.5c-0.5-0.3-1.1-0.5-1.8-0.5c-1.1,0-2,0.4-2.9,1.3s-1.7,2.1-2.5,3.6
		c-0.8,1.5-1.5,3.2-2.1,5.1c-0.6,1.9-1.1,3.8-1.5,5.9c-0.2,0.1-0.5,0.1-0.9,0.1c-0.4-0.1-0.9-0.1-1.4-0.1c-0.5,0-1.1,0-1.6,0
		c-0.5,0.1-1.1,0.1-1.5,0.1c-0.5,0.1-0.9,0.1-1.1,0.3c-0.3,0.1-0.5,0.3-0.5,0.5c0,0.1,0,0.3,0,0.5c0,0.2,0.1,0.4,0.1,0.6
		c0.1,0.2,0.3,0.4,0.5,0.5s0.5,0.2,0.9,0.3c0.8,0.1,1.4,0.2,1.9,0.3c0.4,0.1,0.8,0.1,1.1,0.2c0.3,0.1,0.5,0.1,0.8,0.2
		c0.3,0.1,0.6,0.1,1.1,0.2c-0.1,1-0.3,2.1-0.3,3.1c-0.1,1.1-0.1,2-0.1,2.9c0,0.7,0,1.4,0.1,2.1c-0.5,0.3-1.1,0.5-1.7,0.8
		c-0.7,0.3-1.5,0.5-2.1,0.5c-0.2,0-0.5-0.1-0.7-0.1c-0.2-0.1-0.4-0.3-0.6-0.5c-0.1-0.2-0.3-0.5-0.4-0.9c-0.1-0.3-0.1-0.8-0.1-1.3
		c0-0.3,0.1-0.7,0.1-1.2c0.1-0.5,0.1-1.1,0.3-1.8c0.1-0.7,0.3-1.3,0.3-1.8c0.1-0.5,0.1-0.8,0.1-1.1c0-0.3-0.1-0.6-0.2-0.9
		c-0.1-0.3-0.3-0.5-0.5-0.7c-0.2-0.1-0.5-0.3-0.7-0.4c-0.3-0.1-0.6-0.1-0.9-0.1c-0.8,0-1.5,0.2-2.2,0.7s-1.2,1-1.7,1.7
		s-1,1.5-1.5,2.5c-0.5,1-0.8,1.8-1.1,2.4h-0.3c0-0.8,0-1.7,0.1-2.7c0.1-1.1,0.1-1.9,0.1-2.4c0-0.5-0.1-0.9-0.1-1.1
		c0-0.3-0.1-0.5-0.2-0.6c-0.1-0.1-0.3-0.2-0.5-0.3c-0.2-0.1-0.5-0.1-0.9-0.1c-0.3,0-0.6,0-0.9,0.1c-0.3,0-0.5,0.1-0.6,0.2
		c-0.1,0.1-0.3,0.3-0.4,0.5c-0.1,0.2-0.2,0.5-0.3,0.8c-0.2,0.5-0.4,1.1-0.6,1.9c-0.2,0.8-0.5,1.8-0.7,2.9c-0.3,1.1-0.5,2.3-0.7,3.2
		c-0.2,0.8-0.3,1.6-0.4,2.4c-0.8,1-1.5,1.9-2.2,2.7c-0.3,0.3-0.7,0.7-1,1s-0.7,0.6-1.1,0.9s-0.7,0.5-1.1,0.6c-0.3,0.2-0.7,0.3-1,0.3
		c-0.4,0-0.7-0.2-0.8-0.6c-0.1-0.3-0.2-0.9-0.2-1.6c0-0.8,0.1-1.8,0.4-3c0.3-1.2,0.5-2.3,0.7-3.2c0.2-0.9,0.4-1.9,0.5-2.7
		s0.2-1.7,0.2-2.4c0-0.5-0.1-0.9-0.1-1.1c-0.1-0.3-0.2-0.5-0.3-0.7s-0.3-0.2-0.5-0.3c-0.2-0.1-0.5-0.1-0.7-0.1c-0.2,0-0.3,0-0.5,0
		c-0.2,0-0.3,0-0.5,0s-0.4-0.1-0.6-0.1c-0.1,0-0.3-0.1-0.5-0.1c-0.2-0.1-0.3-0.2-0.5-0.4s-0.3-0.3-0.4-0.5c-0.1-0.2-0.3-0.3-0.5-0.5
		c-0.2-0.1-0.5-0.2-0.8-0.2c-1.1,0-2.1,0.2-3.1,0.7s-1.9,1.1-2.9,1.8c-0.9,0.8-1.7,1.7-2.5,2.7c-0.7,1-1.5,2.2-2.1,3.6
		s-1.1,2.7-1.5,3.8c-0.3,1.2-0.5,2.3-0.5,3.4c0,1,0.1,1.9,0.5,2.7s0.7,1.5,1.3,2.1c0.5,0.5,1.2,1,1.9,1.3c0.7,0.3,1.4,0.5,2.1,0.5
		c0.7,0,1.4-0.1,2.1-0.3c0.7-0.2,1.3-0.5,2-0.9c0.6-0.4,1.2-0.7,1.7-1.2c0.5-0.4,0.9-0.9,1.3-1.3c0.5,1.2,1.1,2.2,1.7,2.8
		s1.5,0.9,2.5,0.9c0.9,0,1.7-0.2,2.5-0.6c0.8-0.4,1.6-0.9,2.3-1.5c0.6-0.5,1.1-1,1.6-1.5c0,0.1,0,0.2,0,0.3c0.1,0.6,0.2,1.1,0.4,1.5
		s0.5,0.8,0.9,1.1c0.4,0.3,0.9,0.4,1.5,0.4c0.3,0,0.5-0.1,0.7-0.1c0.3-0.1,0.5-0.3,0.7-0.5c0.2-0.2,0.4-0.5,0.6-0.9
		c0.2-0.4,0.4-0.9,0.6-1.5l4-11.3h0.5c0.1,1,0.3,1.9,0.5,2.9s0.5,1.8,0.9,2.5c0.4,0.7,1,1.3,1.7,1.8s1.6,0.7,2.7,0.7
		c0.6,0,1.3-0.1,1.9-0.3c0.7-0.2,1.2-0.5,1.8-0.7c0.4-0.2,0.9-0.5,1.3-0.7c0.3,1.7,0.7,3.1,1.2,4.4c0.6,1.3,1.3,2.3,2.2,3
		c0.9,0.7,1.9,1.1,3.1,1.1c0.5,0,1.2-0.1,1.9-0.3c0.7-0.2,1.5-0.5,2.4-0.9c0.9-0.4,1.9-0.9,3.1-1.6c0.4-0.2,0.8-0.4,1.2-0.7
		c0.3,0.7,0.7,1.4,1.2,1.9c0.5,0.5,1.2,1,1.9,1.3c0.7,0.3,1.4,0.5,2.1,0.5c0.9,0,1.7-0.2,2.6-0.7c0.9-0.4,1.7-1,2.5-1.7l-0.5,2.7
		c-0.9,0.8-1.8,1.6-2.5,2.7c-0.7,0.7-1.5,1.7-2.6,2.9c-0.5,0.6-1.1,1.2-1.5,1.9c-0.5,0.7-0.9,1.3-1.1,1.7c-0.3,0.4-0.7,1.1-1.2,2.1
		c-1,1.7-1.5,3.4-1.3,5c0.1,0.8,0.3,1.6,0.6,2.2c0.3,0.6,0.8,1.1,1.3,1.5c0.5,0.3,1.1,0.6,1.8,0.8c0.7,0.2,1.3,0.3,2.1,0.3
		c1,0,1.9-0.1,2.7-0.5s1.5-0.7,2.1-1.2c0.5-0.5,1.1-1.1,1.5-1.8c0.5-0.7,0.9-1.4,1.1-2.1c0.3-0.7,0.5-1.5,0.7-2.3
		c0.3-0.9,0.4-1.6,0.5-2.3c0.1-0.7,0.2-1.3,0.3-2.1c0-0.3,0.1-0.7,0.1-1.3c0.2-1.9,0.4-3.2,0.5-4c0.2-0.7,0.5-1.2,0.9-1.5
		c1.7-1.1,2.7-1.8,3-2.1c1-0.8,1.5-1.3,1.7-1.3c0.3-0.3,0.9-0.7,1.7-1.4c0.5-0.5,1-0.9,1.5-1.5c0.5-0.5,0.8-0.9,1.1-1.4L212.2,85.7z
		 M179.5,67.6c0.3-1.3,0.7-2.5,1.1-3.5c0.3-1.1,0.7-2,1.1-2.7c0.4-0.7,0.8-1.1,1.2-1.1c0.3,0,0.5,0.1,0.7,0.2
		c0.1,0.1,0.3,0.3,0.3,0.5c0.1,0.2,0.1,0.4,0.1,0.6c0.1,0.2,0.1,0.4,0.1,0.5c0,0.5-0.1,1.1-0.4,1.9c-0.3,0.7-0.6,1.5-1,2.4
		c-0.4,0.8-0.9,1.7-1.3,2.6c-0.5,0.9-0.9,1.7-1.4,2.5c-0.3,0-0.5-0.1-0.7-0.1c-0.2,0-0.5-0.1-0.7-0.1
		C178.9,70.2,179.2,68.9,179.5,67.6z M141,85.3c-0.1,0.5-0.2,1.1-0.4,1.9c-0.2,0.7-0.5,1.5-0.8,2.1s-0.7,1.3-1.2,1.7
		c-0.5,0.5-1,0.7-1.5,0.7c-0.3,0-0.7-0.1-0.9-0.3c-0.2-0.2-0.4-0.5-0.5-0.7c-0.1-0.3-0.2-0.6-0.3-1c-0.1-0.3-0.1-0.7-0.1-1.1
		c0-0.7,0.1-1.4,0.2-2.1c0.2-0.7,0.5-1.6,0.9-2.6c0.4-1,0.8-1.9,1.3-2.5s0.9-1.3,1.5-1.8s1.1-0.9,1.7-1.3c0.6-0.3,1.2-0.5,1.8-0.5
		L141,85.3z M198.4,103.3c-0.1,0.7-0.2,1.4-0.3,1.9c-0.1,0.5-0.2,1-0.3,1.5c-0.3,0.9-0.5,1.5-0.6,2c-0.1,0.5-0.3,1-0.5,1.5
		s-0.4,0.9-0.6,1.2c-0.2,0.3-0.4,0.5-0.7,0.8c-0.3,0.2-0.5,0.4-0.8,0.5c-0.3,0.1-0.7,0.1-1,0.1c-1,0-1.3-0.7-0.7-2.2
		c0.6-1.7,1.4-3.4,2.5-5.1c1-1.7,2.1-2.9,3.1-3.6C198.5,102,198.4,102.5,198.4,103.3z"/>
</g>
</svg>
